<?xml version="1.0" encoding="utf-8"?>
<!-- Generator: Adobe Illustrator 16.0.0, SVG Export Plug-In . SVG Version: 6.00 Build 0)  -->
<!DOCTYPE svg PUBLIC "-//W3C//DTD SVG 1.1//EN" "http://www.w3.org/Graphics/SVG/1.1/DTD/svg11.dtd">
<svg version="1.1" id="Layer_1" xmlns="http://www.w3.org/2000/svg" xmlns:xlink="http://www.w3.org/1999/xlink" x="0px" y="0px"
	 width="225.511px" height="343.641px" viewBox="0 0 225.511 343.641" enable-background="new 0 0 225.511 343.641"
	 xml:space="preserve">
<g fill="#2E7D32">
	<g transform="translate(-1196.000000, -129.000000)">
		<g transform="translate(-26.000000, 44.000000)">
			<g>
				<path d="M1419.704,229.107c-2.442,0.425-6.281,3.699-6.197,4.237s3.857,0.253,6.104-0.22c1.785-0.376,2.899-1.058,3.004-2.185
					C1422.735,229.626,1421.288,228.831,1419.704,229.107 M1419.514,238.276c-2.875-0.506-7.146,0.569-7.146,1.139
					c0,0.731,2.891,2.893,5.396,3.491c2.096,0.5,3.811-0.01,4.223-1.504C1422.424,239.815,1421.381,238.605,1419.514,238.276
					 M1409.649,245.802c-0.35,0.349,0.984,4.78,2.53,6.514c1.292,1.449,2.971,1.707,4.103,0.784c1.228-1.002,1.008-2.675-0.055-4.01
					C1414.518,246.95,1409.965,245.486,1409.649,245.802 M1272.5,357.574c-3.871,0.116-16.479,0.95-20.081,1.677
					c-1.236,0.249-1.529,0.696,0.103,1.117c5.259,1.354,17.794-0.484,20.139-1.656
					C1273.955,358.066,1273.966,357.531,1272.5,357.574 M1337.306,151.01c-2.621-0.364-6.656,1.741-8.6,7.335
					c-1.694,4.876-1.764,10.169,0.57,12.53c-0.188-0.056-0.377-0.122-0.57-0.198c-5.511-2.193-4.531-8.884-2.336-15.05
					c1.753-4.926,5.908-9.834,10.652-8.186c2.348,0.816,3.445,2.632,3.514,5.563C1339.927,152.018,1338.792,151.217,1337.306,151.01
					 M1339.799,158.635c-0.217-1.441-0.883-2.778-2.051-3.073c-2.594-0.654-4.934,2.213-5.881,6.175
					c-0.942,3.94-0.521,6.318,0.696,7.357c0.557,0.476,1.139,0.71,1.75,0.688c-0.797,0.65-1.695,1.11-2.697,1.269
					c-3.422-0.461-4.191-6.82-2.025-12.454c1.897-4.933,5.316-6.872,7.437-6.616c2.098,0.252,3.137,1.704,3.34,3.643
					C1340.243,156.55,1340.054,157.552,1339.799,158.635 M1337.678,161.542c-0.352,1.159-1.213,1.924-1.924,1.708
					c-0.711-0.215-1.004-1.329-0.651-2.487c0.351-1.159,1.212-1.924,1.923-1.708
					C1337.737,159.268,1338.028,160.384,1337.678,161.542 M1337.56,145.697c-5.447-1.733-10.31,2.318-12.838,9.422
					c-2.43,6.828-3.356,14.76,3.436,17.327c8.031,3.035,11.82-7.334,12.816-10.708
					C1344.431,150.018,1340.804,146.73,1337.56,145.697 M1325.46,257.944c0.337,3.036-0.675,6.492-2.783,8.432
					c-1.231,1.135-0.222,0.992,0.675,0.591c2.446-1.097,4.3-5.714,2.783-9.275C1325.724,256.728,1325.366,257.101,1325.46,257.944
					 M1373.099,177.927c-2.698-2.277-9.358-0.802-11.638,4.258c-1.598,3.555-0.666,8.374,2.025,9.569
					c1.137,0.507,1.406,0.504,0.842-0.379c-0.875-1.367-1.09-3.298-0.914-5.064c1.367-1.796,3.373-3.09,6.228-2.271
					c1.16,0.334,0.824-0.107,0.169-0.801c-0.999-1.057-3.307-1.581-5.298-0.591c1.405-2.327,4.597-4.792,8.417-3.962
					C1373.898,178.897,1373.922,178.623,1373.099,177.927 M1282.626,258.028c2.361-1.179,4.301-4.89,4.131-7.925
					c-0.059-1.063-0.387-1.91-0.821,0.145c-0.611,2.892-2.27,5.411-3.848,7.193C1281.172,258.475,1281.413,258.635,1282.626,258.028
					 M1443.178,251.493c-0.939-1.792-2.201-3.385-3.807-4.553c-0.967-0.701-2.74-1.559-1.35-0.041
					c2.842,3.098,5.018,11.802,3.119,15.851c-0.936,1.995-1.676,3.528-3.363,4.365c-0.549-2.676-1.666-5.01-2.875-6.221
					c-1.013-1.012-1.652-1.245-1.013,0.085c1.517,3.161,2.065,10.876-1.097,14.164c-3.133,3.259-9.279,5.067-16.035,1.933
					c0.584-1.104,1.041-2.406,1.334-3.93c0.867,0.426,1.664,0.96,2.314,1.609l2.684-2.684c-3.199-3.198-8.285-4.273-11.658-3.917
					l0.396,3.773c0.772-0.082,1.674-0.054,2.61,0.088c-0.802,4.851-3.71,6.434-7.702,6.18c-6.482-0.414-16.945-7.986-14.037-26.704
					c0.195-1.253-0.086-1.465-0.82,0.253c-1.891,4.412-2.528,8.437-2.287,12.016c-7.016,0.366-5.348-16.082-2.664-22.681
					c5.365-13.198,12.398-13.83,15.283-12.181c-1.094,1.003-2.021,2.137-2.723,3.412c-1.087,1.973-0.767,1.994-0.146,1.413
					c9.484-8.917,23.068-8.108,27.634-7.272c8.979,1.645,13.659,6.577,13.659,11.635
					C1443.405,241.634,1445.302,245.761,1443.178,251.493 M1383.342,239.984c-1.538,4.089-3.023,10.574-2.492,16.216
					c-12.807-1.217-25.366-0.225-36.081,1.617l0.378,3.415c1.393-0.239,2.822-0.456,4.286-0.646
					c-0.021,0.934-0.052,1.964-0.093,3.045c-1.414,1.256-3.18,2.723-4.86,4.049c-2.976-5.012-5.338-8.024-7.278-10.493l-1.604-2.129
					c1.638-11.125,5.263-22.742,10.355-24.946c15.229-1.925,27.727-1.312,42.633,0.69
					C1386.565,233.133,1384.771,236.186,1383.342,239.984 M1344.356,321.395c-5.314,5.125-15.385,10.898-30.715,9.74
					c1.992-2.933,3.865-5.848,6.238-9.57l-3.342-2.283c-4.754,6.961-13.338,18.51-13.338,18.51c0.507,4.049-1.686,11.3-4.047,11.469
					c-4.401,0.313-10.147-21.965-11.105-24.361c-4.137-10.343-8.147-19.608-15.924-25.587c1.724-1.104,4.163-1.422,8.269,0.369
					c1.254,0.547,1.342,0.067,0.379-1.266c-0.637-0.882-1.412-1.628-2.287-2.236c9.373-9.279,18.168-14.187,25.564-14.823
					c8.887-0.765,16.36,3.331,22.211,12.967l3.46-2.101c-6.716-11.062-14.942-16.168-26.019-15.213
					c-9.552,0.821-18.437,7.171-25.511,13.799c-2.145-6.63-0.836-15.918,1.318-22.141c0.278,0.104,0.569,0.201,0.883,0.28
					c7.588,1.896,12.207-7.203,13.645-11.917c1.381-4.53,2.729-8.312,4.299-11.721c4.274,0.087,9.882,0.676,15.062,2.169
					c-2.031,3.482-3.596,7.079-4.422,10.591c-2.307,9.802,1.975,19.109,11.383,19.729c9.612,0.633,13.913-7.21,14.417-15.051
					c0.063-0.979,0.146-1.985,0.248-3.01c2.014,2.586,4.309,5.689,7.28,10.948l1.151,2.041l1.853-1.438
					c1.8-1.398,2.876-2.265,3.839-3.087c-0.101,2.169-0.197,4.247-0.246,5.844C1354.463,286.358,1359.524,306.762,1344.356,321.395
					 M1361.209,350.439c10.793-5.059,11.637,15.515,6.914,26.139c-4.44,9.99-13.66,15.853-20.4,14.487
					c-4.18-0.844-6.658-4.111-6.922-9.527l-0.035-0.772l-0.544-0.55c-11.794-11.963-21.904-24.512-32.678-40.571
					c1.396-1.865,2.611-3.529,3.731-5.106c15.634,2.203,27.144-2.601,33.835-8.029
					C1350.543,334.758,1355.566,342.163,1361.209,350.439 M1372.903,351.889c11.932,0.463,10.029,18.874,9.217,25.53
					c2.36,8.433,3.541,15.921,3.541,22.935c0,16.021-8.1,25.01-21.752,23.439c-14.213-1.634-18.297-17.037-17.619-28.884
					c0.242,0.053,0.488,0.104,0.74,0.145c8.782,1.422,19.93-4.522,24.973-16.622C1375.118,370.95,1375.866,359.053,1372.903,351.889
					 M1390.045,367.809c0.752,4.875,1.35,8.094-1.687,9.778c4.382,9.901,8.604,40.098-4.536,41.906
					c3.469-5.585,4.623-12.84,4.705-19.141c0.094-7.291-1.35-14.164-3.542-22.935c0.194-3.125,1.408-13.766-1.435-21.387
					C1387.321,357.116,1389.224,362.471,1390.045,367.809 M1288.659,364.804c-0.302-4.303-2.553-10.012-7.129-13.648
					c-6.829-17.243-15.556-31.492-28.583-35.792c-10.267-3.389-19.334-2.366-24.958,1.93c0.382-9.424,10.485-23.508,29.665-20.004
					c15.634,2.855,21.443,14.277,27.309,28.942c0.776,1.943,5.858,20.632,11.134,26.298
					C1296.184,357.186,1293.697,362.52,1288.659,364.804 M1285.072,367.344c-0.554,1.383-1.472,2.492-2.639,3.396
					c1.372-2.746-0.751-9.336-5.583-14.271c-7.588-19.225-14.418-28.457-26.434-33.012c-6.742-2.555-20.074-3.315-24.362,4.797
					c0.029-1.677,0.289-3.231,0.753-4.629c1.855-5.563,12.274-9.944,25.253-5.479c15.491,5.332,23.313,24.031,28.204,34.486
					C1284.987,357.185,1286.59,363.551,1285.072,367.344 M1277.73,373.069c-0.76,0.244-1.549,0.456-2.354,0.642
					c-6.577,1.52-16.863-2.318-25.801-13.153c-12.999-8.017-19.924-17.274-22.422-25.247c-1.576-12.256,14.875-12.495,22.38-9.448
					c12.774,5.188,19.604,15.937,25.042,31.492C1279.673,362.683,1283.702,370.026,1277.73,373.069 M1279.381,251.115
					c2.149-4.68,5.186-6.24,7.209-5.649c2.511,0.731,2.445,5.732,0.759,9.528c-1.395,3.135-3.794,7.84-7.42,5.817
					C1278.148,259.817,1277.306,255.632,1279.381,251.115 M1307.945,227.259c-0.009,0.084-0.017,0.167-0.024,0.246
					c-10.266,10.202-13.301,18.172-16.652,28.415c-1.498,4.577-5.564,11.257-9.928,10.244c-2.251-0.521-2.826-2.108-2.921-3.64
					c0.211,0.147,0.433,0.28,0.665,0.394c4.815,2.318,8.461-3.768,9.895-7.146c2.584-6.09,1.636-11.049-1.645-12.442
					C1293.2,235.664,1299.643,230.395,1307.945,227.259 M1271.457,180.565c4.654,0.185,9.729-1.189,14.449-3.177
					c0.722,0.956,1.562,1.821,2.526,2.595c-2.101,7.094,2.649,13.176,7.049,14.383c1.908,15.186,8.293,24.802,16.076,27.725
					c-1.158,0.388-1.958,1.096-2.507,1.913c-6.14,2.197-11.193,4.856-15.556,8.35
					C1285.272,215.067,1277.456,196.234,1271.457,180.565 M1264.204,173.964c-1.369-1.1-2.654-2.575-2.671-5.174
					c2.705,0.574,5.311,0.558,7.519-0.053c1.968-0.544,2.023-0.843-0.043-0.97c-6.961-0.426-12.941-3.57-18.085-9.612
					c-5.204-6.112-6.688-14.578-4.688-22.812c2.887-11.878,13.695-22.416,25.937-24.701c7.381-1.378,14.579,0.306,18.477,5.713
					c-0.327,2.195-0.223,4.53,0.219,6.893c-1.254,0.024-2.441,0.124-3.558,0.292c-1.179-3.375-4.245-7.32-9.067-7.924
					c-2.023-0.253-2.77,0.004-1.139,0.548c3.181,1.062,5.593,4.098,7.033,8.085c-2.87,0.862-5.158,2.212-6.884,3.792
					c-1.814-3.409-5.043-5.924-8.706-6.354c-1.791-0.211-3.109-0.199-1.096,0.59c3.656,1.434,6.252,4.955,7.463,8.537
					c-0.671,1.06-1.145,2.151-1.416,3.219c-0.989,3.882-0.221,7.872,2.057,10.185c-0.374,0.713-0.859,1.243-1.359,1.543
					c-0.724,0.435-2.303,0.832-4.046,0.233c0.426-6.677-4.664-14.662-10.962-16.381c-1.854-0.505-2.682-0.5-1.138,0.338
					c7.461,4.047,9.738,13.881,8.179,17.959c-0.959,2.509-2.667,4.147-5.186,4.3c-3.068,0.188-6.204-2.98-6.829-5.69
					c-0.38-1.645-0.78-1.271-0.59,0.885c0.379,4.301,3.759,7.508,7.04,7.841c4.075,0.414,7.642-2.334,8.982-6.547
					c1.621,0.855,3.74,0.852,5.562,0.224c1.411-0.484,2.638-1.559,3.351-2.969c3.568,0.936,8.887-0.359,11.573-4.873
					c1.077-1.809,0.38-1.391-0.759-0.506c-2.827,2.199-7.734,3.57-10.54,1.855c-1.903-1.163-2.654-4.521-1.89-7.521
					c0.48-1.889,3.396-8.71,14.43-9.46c1.62,6.002,5.188,11.949,9.088,15.987c-1.146,3.459-2.872,6.993-4.967,9.109
					c-0.669,0.073-1.314,0.191-1.927,0.366c-7.229,2.058-10.999,8.723-10.897,15.842c0.037,2.61,0.45,4.94,1.234,6.99
					C1277.366,176.33,1270.142,178.738,1264.204,173.964 M1296.834,111.865c11.371-11.579,43.989,6.012,61.663,37.207
					c-4.051-0.131-7.099-1.771-9.838-4.424c0.84-4.196,0.494-9.414-3.447-11.471c-1.672-0.872-3.871-1.021-6.075-0.451
					c-5.271-7.485-12.229-14.543-21.012-17.445c-1.618-0.535-1.889-0.444,0.169,0.928c7.48,4.987,12.219,9.976,16.321,16.072
					c-5.213-2.364-10.359-3.344-14.056-3.625c-0.733-1.271-1.853-2.204-3.488-2.435c-3.165-0.447-5.969,2.316-7,6.762
					c-1.557,2.67-3.161,5.84-4.609,8.934C1292.395,130.562,1292.198,116.585,1296.834,111.865 M1332.204,111.317
					c1.117-4.092,4.104-9.178,6.072-12.816c-2.025-0.337-3.373-0.337-5.397-0.168c-1.507,2.176-4.474,7.708-5.925,12.568
					c-1.179-0.669-2.354-1.289-3.519-1.856c0.661-7.409,4.529-12.139,11.806-12.565c5.162-0.305,9.646,2.269,11.297,7.082
					c1.852,5.398,1.025,12.835-4.684,18.393c-2.095-1.946-4.223-3.735-6.361-5.372c1.522,0.488,3.113,1.017,4.301,1.313
					c0.562-2.109,1.164-3.619,1.688-5.229C1338.842,112.314,1335.092,111.695,1332.204,111.317 M1340.467,89.226
					c11.515,0.24,21.685,9.722,27.656,21.754c6.226,12.693,9.569,27.487,9.949,39.882c0.061,2.022,0.523,1.464,1.096-0.59
					c0.357-1.28,0.61-2.669,0.771-4.147c4.933,1.834,9.597,6.154,10.444,12.41c0.897,6.616-2.143,12.616-7.104,16.309
					c-1.063-2.781-3.062-5.125-5.754-6.316c-2.513-1.111-5.035-1.072-7.431-0.35c-5.567-18.736-15.523-33.849-26.578-44.645
					c6.705-6.206,7.41-14.917,5.279-20.577c-2.207-5.853-7.302-9.125-13.629-8.752c-8.342,0.491-12.987,6.45-13.802,13.887
					c-1.28-0.562-2.546-1.064-3.793-1.498C1319.708,98.232,1326.573,88.936,1340.467,89.226 M1363.184,158.515
					c1.51,3.522,2.812,7.18,3.877,10.948c-2.674,1.457-5.082,3.592-6.99,5.639c-1.432,1.536-2.715,3.709-4.258,4.512
					c-2.107,1.096-4.891,0.928-6.998-1.35c-0.793-0.856-2.023-2.782-0.844-4.807c0.867-1.484,2.865-1.518,5.27-3.035
					C1358.497,167.104,1361.915,162.371,1363.184,158.515 M1314.984,146.14c-2.645,0.087-5.229,2.821-6.324,7.982
					c-0.529-0.329-1.066-0.637-1.609-0.924c1.698-6.791,4.666-11.68,8.46-10.685c1.434,0.377,2.032,2.012,1.778,4.787
					C1316.734,146.542,1315.944,146.108,1314.984,146.14 M1315.556,154.236c-0.331,0.932-1.027,1.536-1.554,1.348
					c-0.528-0.187-0.688-1.094-0.358-2.025c0.331-0.933,1.026-1.536,1.554-1.35C1315.726,152.396,1315.886,153.304,1315.556,154.236
					 M1315.616,149.934c-2.196-0.395-3.74,2.323-4.275,6.093c-0.585-0.471-1.186-0.917-1.802-1.333
					c0.567-4.726,3.545-7.608,5.382-7.669c1.049-0.034,2.083,0.894,2.029,2.521c-0.084,0.418-0.182,0.854-0.293,1.308
					C1316.471,150.348,1316.111,150.023,1315.616,149.934 M1299.256,150.619c1.777-1.964,3.035-4.407,3.932-6.718
					c0.343,0.265,0.687,0.511,1.028,0.74c-1.072,2.402-2.001,4.641-2.684,6.417C1300.764,150.865,1300.003,150.719,1299.256,150.619
					 M1324.401,199.477c-0.939,6.771-3.045,11.526-6.319,11.923c-2.119,0.257-4.288-0.833-6.239-3.179
					c-0.296-2.347,1.221-4.502,2.661-5.657C1317.762,202.045,1321.587,200.739,1324.401,199.477 M1312.643,200.777
					c-1.776,0.161-4.539,0.428-5.163-2.941c3.544,0.216,8.271-0.682,11.893-2.02c1.738,0.154,3.562,0.076,5.43-0.312
					c-0.041,0.604-0.09,1.198-0.146,1.78C1321.245,199.049,1316.427,200.433,1312.643,200.777 M1376.513,190.406
					c-5.556,6.984-11.319,9.233-20.472,5.197c-1.071-0.474-1.219-0.392-1.852,0.241c-2.986,2.987-14.134,15.517-17.748,28.906
					c-0.836,0.39-1.71,0.857-2.611,1.398c-6.616,1.721-18.25,0.137-19.038-1.596c-0.094-0.473-0.094-1.063-0.091-1.662
					c0.781,0.108,1.57,0.163,2.368,0.144v-2.908c-10.551-1.659-15.768-10.319-17.913-25.544c3.722-0.592,5.858-3.733,6.656-6.328
					c1.363,2.368,4.599,5.06,8.805,6.531c-4.147,0.918-8.888,1.192-11.46,0.551c-0.759-0.188-0.754-0.065-0.442,0.507
					c0.416,0.768,1.257,1.289,2.371,1.611c2.289,12.104,8.413,16.95,13.444,16.26c4.421-0.605,7.85-6.938,8.798-18.919
					c8.712-3.127,11.423-11.792,8.416-19.23c-0.26-0.646-0.252-0.825-1.096-0.252c-3.996,2.711-11.558,3.941-16.469,2.493
					c0.57-0.607,1.089-1.254,1.545-1.945l-2.276-1.897c-5.313,6.07-13.191,7.751-20.11,6.07
					c-8.854-2.149-11.996-7.223-11.509-14.038c0.378-5.312,3.39-10.346,8.347-11.763c5.312-1.519,13.787,0.633,20.616,9.612
					l2.403-1.013c-0.493-0.874-1.047-1.708-1.65-2.505c4.851-12.113,4.826-18.198,0.807-19.417
					c-4.62-1.401-8.595,3.092-10.737,11.583c-0.479-0.217-0.959-0.417-1.44-0.601c1.42-3.772,4.383-10.953,8.003-16.358
					c1.296-1.451,2.792-2.481,4.449-2.232c2.551,0.382,3.574,3.125,3.794,4.553c0.168,1.096,0.421,1.264,0.843-0.253
					c0.422-1.52,0.618-3.643,0.342-5.648c3.535,0.396,8.218,1.392,12.654,3.386c-1.572,1.397-2.869,3.288-3.594,5.678
					c-0.311,1.021-0.074,1.023,0.758,0.442c3.351-2.34,7.56-3.24,10.435-1.645c3.983,2.214,4.275,7.593,4.151,9.296
					c-0.104,1.455,0.063,1.729,0.908,0.379c0.233-0.377,0.469-0.841,0.69-1.365c3.375,2.887,7.398,4.738,12.767,4.426
					c0.265,0.516,0.524,1.035,0.78,1.559c-0.844,5.057-4.569,11.569-9.307,14.163c-1.742,0.954-4.605,1.507-6.07,3.541
					c-1.854,2.572-1.771,6.45,0.844,9.063c2.133,2.133,6.324,3.457,9.906,1.435c2.562-1.447,4.033-3.777,5.564-5.565
					c4.555-5.312,9.612-7.083,13.786-5.228c1.86,0.828,3.905,3.21,4.427,5.606C1381.165,181.067,1379.538,186.601,1376.513,190.406
					 M1355.518,215.195c-0.191,0.506-1.146,1.172-1.771,1.265c-1.264,0.19-3.225-0.253-4.68-1.834
					c-0.949-1.032-1.018-0.623-0.632,0.317c0.569,1.391,2.276,3.92-0.759,4.3c-1.071,0.133-3.346-0.732-4.75-2.713
					c3.383-6.967,7.697-11.98,11.252-15.83c-0.574,3.331-0.262,6.593,0.58,8.805
					C1355.913,212.533,1355.976,213.974,1355.518,215.195 M1312.306,225.777c1.28,2.408,8.404,4.779,16.845,3.644
					c-4.951,3.916-10.138,9.404-14.099,15.399c-4.552-1.728-10.518-2.523-15.246-2.468c2.522-4.692,5.688-8.812,10.307-13.497
					c0,0,0.257-3.235,2.189-4.022C1312.289,225.132,1312.284,225.43,1312.306,225.777 M1343.963,227.75
					c-7.586,5.606-10.52,21.134-11.969,34.747c-0.633,5.944-4.056,12.879-11.382,12.27c-7.589-0.633-10.499-7.842-9.107-15.432
					c2.344-12.784,18.195-29.708,26.513-32.962C1339.802,226.346,1342.032,226.554,1343.963,227.75 M1444.153,238.41
					c-0.037-4.738-3.896-13.55-17.43-15.5c-6.225-0.896-15.088,0.065-21.32,3.678c-4.281-2.14-8.933-1.874-13.08,0.876
					c-16.229-2.337-28.693-3.229-44.742-1.314c-2.006-1.204-5.143-2.039-7.563-2.28c0.548-1.741,1.159-3.385,1.819-4.939
					c1.322,1.322,3.029,2.098,4.701,2.336c2.656,0.38,5.188-0.252,5.691-2.782c2.15,0.885,4.496,0.429,5.564-1.139
					c1.896-2.782,0.633-5.186-0.379-8.727c-0.672-2.35-0.541-5.802,0.416-8.59c9.373,2.816,15.266,0.539,21.592-6.84
					c3.296-3.847,4.969-9.238,4.742-13.917c5.818-3.458,11.232-12.522,10.098-20.905c-1.087-8.008-6.836-13.638-14.125-15.521
					c0.188-10.072-3.163-23.062-7.969-33.553c-7.334-16.02-18.643-24.021-31.195-24.283c-16.793-0.351-24.88,11.687-27.273,20.426
					c-8.451-2.086-15.677-0.911-19.902,3.899c-0.73,0.831-1.326,1.729-1.805,2.679c-4.848-4.827-12.048-6.396-19.991-4.913
					c-13.908,2.596-26.369,14.305-29.654,27.825c-2.34,9.63,0.097,18.897,6.045,25.885c2.934,3.445,6.596,5.833,10.268,7.158
					c-0.563,3.425,1.225,7.388,3.518,9.283c1.413,1.169,2.979,1.991,4.65,2.527c6.193,16.4,14.791,36.888,23.581,55.291
					c-2.45,2.373-4.683,5.086-6.786,8.22c-2.582,0.867-5.186,3.423-6.731,7.064c-1.236,2.915-1.483,5.839-0.934,8.177
					c-0.618,1.879-0.929,4.697,0.101,6.977c-3.005,8.382-3.743,19.73-1.129,28.486c-0.163,0.165-0.323,0.33-0.483,0.495
					c-2.653-0.524-5.613-0.146-8.337,1.245c-2.355-1.054-4.979-1.889-7.938-2.464c-17.744-3.45-35.485,9.269-33.733,27.861
					c-1.342,2.102-2.173,4.584-2.384,7.398c-0.981,13.137,10.744,26.32,26.393,34.704c7.026,10.304,19.654,16.087,28.443,14.688
					c5.778-0.919,9.714-4.293,11.174-8.448c6.576-1.247,12.066-7.457,12.068-15.431c3.248-0.686,5.363-4.602,6.437-8.628
					c9.893,14.4,19.385,26.021,30.276,37.126c0.43,5.015,2.461,8.818,5.805,10.904c-1.232,14.646,4.676,33.551,20.84,35.052
					c7.006,0.649,12.143-0.985,15.875-3.941c23.881,0.812,16.314-38.081,12.195-44.945c1.648-1.591,2.744-1.896,2.656-5.312
					c-0.354-13.521-4.971-21.79-12.66-22.075c-2.246-3.083-5.739-4.929-11.107-4.226c-1.882-1.909-4.428-2.707-7.725-1.776
					c-4.838-7.197-9.809-14.938-14.487-22.644c10.919-11.553,13.579-27.215,4.537-51.05c0.437-4.508,0.497-8.264,0.603-12.391
					c8.812-0.854,18.576-0.85,28.322,0.216c1.239,3.613,3.803,6.344,8.441,6.965c2.215,8.93,10.1,14.354,16.176,15.032
					c2.855,0.316,6.13-0.349,8.559-2.729c8.49,4.692,16.987,2.588,20.698-1.569c1.679-1.882,2.417-4.317,2.537-6.787
					c3.159-0.666,4.962-2.893,6.317-6.238c0.859-2.127,1.064-5.062,0.566-8.035C1448.48,251.828,1448.476,242.519,1444.153,238.41
					 M1328.263,263.079c-0.698,2.423-2.225,4.439-4.188,5.535c-1.522,0.847-3.199,1.062-4.723,0.604
					c-1.523-0.457-2.819-1.563-3.648-3.119c-1.072-2.006-1.287-4.547-0.59-6.969c0.697-2.422,2.222-4.439,4.186-5.533
					c1.521-0.85,3.199-1.065,4.722-0.607c2.854,0.859,4.642,3.852,4.642,7.27C1328.664,261.179,1328.535,262.131,1328.263,263.079
					 M1324.655,250.792c-2.099-0.63-4.382-0.349-6.428,0.792c-2.482,1.385-4.4,3.897-5.264,6.898c-0.863,3-0.582,6.178,0.773,8.714
					c1.116,2.091,2.886,3.589,4.984,4.219c2.097,0.63,4.38,0.351,6.427-0.792c2.481-1.382,4.4-3.896,5.264-6.896
					C1332.048,258.039,1329.465,252.238,1324.655,250.792"/>
			</g>
		</g>
	</g>
</g>
</svg>
